<?xml version="1.0" encoding="UTF-8"?> <!-- Generator: Adobe Illustrator 24.0.0, SVG Export Plug-In . SVG Version: 6.00 Build 0) --> <svg xmlns="http://www.w3.org/2000/svg" xmlns:xlink="http://www.w3.org/1999/xlink" version="1.1" id="Layer_1" x="0px" y="0px" viewBox="0 0 245.01 257.61" style="enable-background:new 0 0 245.01 257.61;" xml:space="preserve"> <style type="text/css"> .st0{fill:#136436;} .st1{display:none;fill:#231F20;} .st2{display:none;} .st3{display:inline;} .st4{fill:#231F20;} .st5{display:none;fill:#136436;} .st6{fill:#FFFFFF;} </style> <g> <g id="XMLID_95_"> <path id="XMLID_97_" class="st6" d="M10.45,128.7c0-7.06,0.66-13.97,1.9-20.68c-1.8-1.29-3.57-2.6-5.32-3.95 c-1.68,7.95-2.56,16.18-2.56,24.62c0,5.49,0.38,10.89,1.1,16.19c1.81-1.42,3.66-2.81,5.52-4.17 C10.67,136.77,10.45,132.76,10.45,128.7z"></path> <path id="XMLID_96_" class="st6" d="M240.34,104.07c-1.75,1.35-3.52,2.66-5.32,3.95c1.24,6.71,1.9,13.62,1.9,20.68 c0,4.06-0.22,8.07-0.64,12.02c1.86,1.36,3.71,2.74,5.52,4.17c0.72-5.29,1.1-10.7,1.1-16.19 C242.91,120.26,242.02,112.02,240.34,104.07z"></path> </g> <g id="XMLID_90_"> <path id="XMLID_91_" class="st6" d="M166,74.88c-11.19,2.78-12.95,12.96-14.81,17.5c-1.85,4.54-4.29,6.31-5.64,6.31 c-1.35,0-3.28-0.84-3.95-6.14s10.77-33.73,1.35-35.33c-9.42-1.6-11.44,3.95-12.28,7.91c-0.38,1.79-0.2,7.89-0.8,14.07 c-0.73,7.49-2.48,15.08-5.95,15.08c-6.33,0-6.45-21.24-6.79-28.48c-0.34-7.23-6.65-10.26-11.95-8.66 c-5.3,1.6-4.88,8.92-2.86,16.53c2.02,7.62,7.66,23.93,0.5,24.77c-7.15,0.84-4.71-12.45-14.89-20.69 c-10.18-8.24-33.4-1.43-33.4-1.43s2.4,17.96,13.88,26.92s25.43,7.89,25.43,7.89s-2.33,1.58-4.92,4.23 c-2.59,2.65-2.4,6.75-2.4,6.75s-0.25,0.38-2.21,0.69c-1.96,0.32-3.53-0.32-3.53-0.32s1.45,1.89,3.41,2.71s3.97,1.32,3.97,1.32 s-1.32,3.47,2.52,7.7c3.85,4.23,9.27,0.44,9.27,0.44s-0.76,1.77-3.03,3.22c-2.27,1.45-4.46,0.95-4.46,0.95s4.46,8.58,4.8,11.61 c0.34,3.03-2.1,7.32-1.26,15.39c0.84,8.08,5.91,12.87,5.91,12.87s0.78-5.62,2.27-10.79c2.36-8.18,6.44-14.2,5.49-26.56 c-0.5-13.5-10.39-27.42-10.39-27.42s6.34,4.48,10.26,13.46c1.98,4.52,2.94,12,3.53,16.99c1.77,14.89-6.69,24.35-8.83,35.71 c-2.15,11.36,8.96,16.91,8.96,16.91s-0.29,11.17,10.55,11.17c10.84,0,10.81-11.04,10.81-11.04s6.44-2.44,9.05-12.87 c1.51-11.48-8.45-16.15-8.96-38.11c-0.5-21.96,13.42-32.05,13.42-32.05s-8.49,12.24-10,24.27c-1.51,12.03,3.36,23.51,5.54,29.32 c2.19,5.8,2.52,10.26,2.52,10.26s1.77,1.77,4.54-7.49c2.78-9.25-0.17-13.71-0.25-18.93c-0.08-5.22,5.05-12.62,5.05-12.62 s-1.93,0.34-4.63-0.76c-2.69-1.09-3.03-3.45-3.03-3.45s3.79,3.11,8.33,0.17c4.54-2.94,3.28-8.41,3.28-8.41s1.93-0.25,3.95-0.84 c2.02-0.59,3.87-2.94,3.87-2.94s-1.68,0.25-3.36,0.25c-1.68,0-2.61-0.76-2.61-0.76s-0.01-3.43-2.19-6.39 c-2.18-2.96-5.22-4.88-5.22-4.88s8.41,2.44,23.64-6.39c15.23-10.35,15.31-28.18,15.31-28.18S177.19,72.11,166,74.88z M111.32,183.86c-1.61-1.18-2.69-2.93-0.87-4.92c1.82-1.99,4.45-0.5,6.33,1.96c1.79,2.33,2.56,5.74,2.56,5.74 S114,185.82,111.32,183.86z M137.4,178.94c1.82,1.99,0.73,3.75-0.87,4.92c-2.68,1.96-8.01,2.78-8.01,2.78s0.77-3.41,2.56-5.74 C132.96,178.44,135.58,176.96,137.4,178.94z"></path> </g> <g id="XMLID_34_"> <path id="XMLID_87_" class="st6" d="M2.81,155.54c1.94,0.43,19.75,4.42,25.63,5.94l0.1,0.32c-4.53,5.69-15.25,18.64-16.63,20.57 l-5.78-5.11c1.26-1.43,3.58-3.98,4.01-4.47l-3.65-9.43c-0.53-0.11-3.39-0.45-5.11-0.67L2.81,155.54z M13.91,169.18 c1.53-1.48,3.4-3.43,4.52-4.42c-1.78-0.27-4.5-0.62-6.55-0.87L13.91,169.18z"></path> <path id="XMLID_85_" class="st6" d="M12.78,189.14c1.59-0.79,7.75-4.47,8.45-4.88l3.83-2.28c0.46-0.27,7.36-4.47,8.16-5.03 c1.41,2.36,6.03,9.4,7.95,12.35l-4.68,2.95L32.57,186l-4.43,2.64c0.38,0.63,1.7,2.46,3.71,5.63l-4.5,2.8l-3.45-5.91l-2.45,1.46 c-0.46,0.27-4.44,2.69-4.85,2.93L12.78,189.14z"></path> <path id="XMLID_83_" class="st6" d="M37.91,207.15c-0.93,0.87-7.07,6.72-7.39,7.11l-5.09-5.47c0.68-0.45,8.41-7.74,8.93-8.22 l2.01-1.87c0.74-0.69,6.01-5.69,6.41-6.2c3.13,3.36,6.25,6.82,8.01,9.3c2.91,4.06,3.32,7.35,1.06,9.45 c-2.01,1.87-4.72,2.06-7.85,1.4c-0.15,1.51-0.46,8.81-0.65,10.17l-7.56-1.34c0.41-1.43,2.87-12.61,3.33-14.27 c1.64,0.49,4.61,0.97,6.26-0.56c1.15-1.07,1.5-2.91-0.94-5.58L37.91,207.15z"></path> <path id="XMLID_73_" class="st6" d="M58.08,225.08c-1.99,2.7-5.46,7.59-5.89,8.23l-6.26-4.61c0.93-1.15,5.6-7.45,6.12-8.15 l2.14-2.92c0.34-0.46,5.36-7.46,5.84-8.11l6.26,4.61c-0.38,0.47-3.68,4.78-6.07,8.02L58.08,225.08z"></path> <path id="XMLID_61_" class="st6" d="M74.9,246.26c-1.11-0.41-2.25-0.83-3.65-1.54c-9.82-4.94-10.93-11.77-8.91-15.78 c2.5-4.97,10.05-8.71,21.5-5.73l-1.58,6.41c-6.89-2.04-10.82-0.57-12.24,2.25c-1.16,2.3,0.4,5.46,4.39,7.46 c1.2,0.6,2.2,0.99,2.95,1.3L74.9,246.26z"></path> <path id="XMLID_58_" class="st6" d="M80.05,245.82c1.37-1.43,14.05-14.57,18.4-18.81l0.33,0.08c2.51,6.83,7.99,22.71,8.92,24.9 l-7.36,2.28c-0.57-1.82-1.54-5.12-1.73-5.75l-9.95-1.78c-0.37,0.39-2.15,2.66-3.23,4.02L80.05,245.82z M97.47,243.42 c-0.47-2.08-1.16-4.69-1.43-6.16c-1.16,1.38-2.87,3.52-4.15,5.14L97.47,243.42z"></path> <path id="XMLID_55_" class="st6" d="M121.7,249.94c3.25-0.08,6.75-1.19,6.66-2.76c-0.04-0.67-0.63-1.04-3.43-2.42 c-2.18-1.08-4.71-2.62-4.87-5.43c-0.21-3.75,4.54-8.11,12.97-9.33l1.22,5.54c-4.18,0.24-6.25,1.06-6.17,2.43 c0.05,0.8,1.14,1.24,3.38,2.19c1.82,0.77,4.79,2.11,4.96,5.12c0.21,3.68-3.37,8.58-13.48,10.33L121.7,249.94z"></path> <path id="XMLID_52_" class="st6" d="M140.73,251.76c0.51-1.92,5.22-19.56,6.97-25.37l0.32-0.09c5.51,4.76,18.01,15.99,19.88,17.45 l-5.33,5.56c-1.38-1.32-3.83-3.73-4.3-4.19l-9.56,3.27c-0.13,0.52-0.59,3.37-0.88,5.08L140.73,251.76z M154.8,241.21 c-1.42-1.59-3.29-3.54-4.24-4.7c-0.34,1.77-0.8,4.47-1.14,6.51L154.8,241.21z"></path> <path id="XMLID_49_" class="st6" d="M174.71,243.16c-0.73-1.63-4.15-7.93-4.54-8.64l-2.13-3.92c-0.26-0.47-4.17-7.54-4.69-8.36 c2.42-1.31,9.64-5.65,12.67-7.45l2.76,4.8l-6.4,3.67l2.46,4.54c0.65-0.35,2.53-1.6,5.78-3.48l2.62,4.61l-6.04,3.21l1.36,2.51 c0.26,0.47,2.51,4.55,2.73,4.96L174.71,243.16z"></path> <path id="XMLID_46_" class="st6" d="M190.72,231.8c-0.37-1.95-3.77-19.89-4.71-25.89l0.25-0.22c7.03,1.9,23.16,6.61,25.48,7.12 l-2.4,7.33c-1.81-0.59-5.07-1.71-5.7-1.91l-7.21,7.09c0.11,0.53,0.93,3.29,1.41,4.96L190.72,231.8z M198.83,216.2 c-1.97-0.82-4.49-1.76-5.85-2.4c0.46,1.74,1.21,4.38,1.8,6.36L198.83,216.2z"></path> <path id="XMLID_44_" class="st6" d="M213.75,197.25c1.05,0.72,8.1,5.44,8.55,5.66l-4.23,6.16c-0.59-0.57-9.39-6.52-9.97-6.92 l-2.27-1.55c-0.83-0.57-6.86-4.63-7.45-4.91c2.6-3.79,5.29-7.59,7.33-9.85c3.33-3.73,6.45-4.84,8.99-3.1 c2.27,1.55,3.04,4.16,3.08,7.36c1.51-0.18,8.69-1.47,10.07-1.59l0.34,7.67c-1.49-0.08-12.93-0.05-14.66-0.14 c0.12-1.71-0.06-4.71-1.91-5.98c-1.3-0.89-3.17-0.83-5.24,2.13L213.75,197.25z"></path> <path id="XMLID_37_" class="st6" d="M226.84,173.63c3.07,1.34,8.61,3.66,9.33,3.94l-3.12,7.12c-1.32-0.65-8.5-3.83-9.29-4.18 l-3.32-1.45c-0.52-0.23-8.45-3.59-9.19-3.91l3.12-7.12c0.54,0.27,5.47,2.54,9.16,4.16L226.84,173.63z"></path> <path id="XMLID_35_" class="st6" d="M234.06,168.81c0.93-3.12,0.96-6.78-0.56-7.19c-0.65-0.17-1.18,0.28-3.37,2.51 c-1.71,1.73-3.95,3.67-6.67,2.95c-3.63-0.96-6.31-6.83-4.85-15.22l5.64,0.56c-1.07,4.05-0.93,6.27,0.4,6.62 c0.78,0.21,1.54-0.7,3.13-2.54c1.3-1.49,3.49-3.9,6.41-3.12c3.56,0.94,7.12,5.87,5.65,16.02L234.06,168.81z"></path> </g> <g id="XMLID_1_"> <path id="XMLID_29_" class="st6" d="M17.79,99.82c-1.14-1.63-11.56-16.61-14.87-21.7l0.14-0.3c7.19-1.13,23.83-3.42,26.15-3.91 l0.8,7.67c-1.9,0.2-5.32,0.51-5.98,0.58l-3.68,9.41c0.31,0.44,2.19,2.62,3.31,3.95L17.79,99.82z M18.82,82.27 c-2.13,0.06-4.82,0.22-6.32,0.2c1.13,1.4,2.89,3.5,4.24,5.07L18.82,82.27z"></path> <path id="XMLID_27_" class="st6" d="M44.04,60.47c-0.61,1.01-1.24,2.05-2.2,3.3c-6.69,8.72-13.6,8.53-17.17,5.8 c-4.42-3.39-6.68-11.5-1.61-22.19l6,2.75c-3.29,6.39-2.58,10.52-0.08,12.44c2.05,1.57,5.44,0.62,8.15-2.92 c0.82-1.06,1.39-1.98,1.83-2.66L44.04,60.47z"></path> <path id="XMLID_24_" class="st6" d="M49.39,55.15c-0.52-0.7-3.64-4.3-6.05-7.04l-5.8-6.6c-1.21,1.06-4.67,4.33-5.43,5.04 l-3.87-4.41c1.22-0.89,7.28-6.04,7.55-6.28l2.19-1.92c0.48-0.42,5.88-5.34,7.02-6.53l3.87,4.41c-0.5,0.4-5.27,4.36-5.67,4.72 l6.15,7c2.28,2.59,5.36,6.04,5.85,6.5L49.39,55.15z"></path> <path id="XMLID_22_" class="st6" d="M64.18,31.6c1.77,2.85,5.02,7.89,5.45,8.53l-6.61,4.1c-0.72-1.29-4.83-7.97-5.29-8.71 l-1.91-3.08c-0.3-0.48-4.93-7.75-5.35-8.43l6.61-4.1c0.29,0.53,3.07,5.2,5.19,8.61L64.18,31.6z"></path> <path id="XMLID_20_" class="st6" d="M89.68,8.88c-0.53,2.18-4.14,21.3-5.13,25.81l-0.31,0.12C79.06,31.06,65.76,20.26,64.08,19 l5.32-6.25c1.2,1.16,9.3,8.89,11.08,10.61C80.61,20.87,81.71,9.17,81.77,8L89.68,8.88z"></path> <path id="XMLID_18_" class="st6" d="M114.07,26.7c-1.19,0.18-13.2,1.66-14.93,1.92c-0.17-1.77-1.24-8.86-1.35-9.62l-0.67-4.44 c-0.08-0.53-1.35-8.51-1.53-9.46c1.86-0.28,12.91-2.46,14.13-2.74l0.96,5.45c-1.23,0.19-6.4,1.14-7,1.23l0.66,4.37 c0.66-0.1,4.45-0.84,5.89-1.19l0.9,5.29c-0.89,0.14-5.32,0.67-6.05,0.78l0.6,3.94c0.86-0.13,5.87-0.82,7.41-1.19L114.07,26.7z"></path> <path id="XMLID_16_" class="st6" d="M117.54,25.75c0.38-2.36,2.49-19.41,3.17-23.83l0.35-0.18c4.48,3.84,14.59,12.78,15.69,13.74 c0.14-1.84,0.73-10.81,0.87-12.24l6.81,0.69c-0.4,2.59-1.08,7.55-1.76,12.41c-0.64,4.83-1.24,9.56-1.5,11.72l-0.35,0.14 c-3.81-2.91-15.15-13.4-15.62-13.84c-0.1,1.37-0.81,11.03-0.86,12.14L117.54,25.75z"></path> <path id="XMLID_13_" class="st6" d="M150.52,30.26c0.33-0.81,1.82-5.33,2.94-8.81l2.69-8.36c-1.53-0.49-6.12-1.79-7.11-2.08 l1.8-5.58c1.39,0.59,8.92,3.15,9.27,3.26l2.78,0.89c0.61,0.2,7.6,2.31,9.21,2.68l-1.8,5.58c-0.6-0.23-6.45-2.29-6.96-2.45 l-2.85,8.87c-1.06,3.29-2.44,7.7-2.58,8.36L150.52,30.26z"></path> <path id="XMLID_11_" class="st6" d="M180.41,25.88c-2.76,4.6-3.77,6.81-3.45,8.76c0.2,1.17,0.93,1.97,1.82,2.5 c1.01,0.6,2.17,0.75,3.37,0.18c1.48-0.71,2.26-1.89,6.17-8.41l0.65-1.09c1.19-1.98,2.26-4.04,2.87-5.12l6.58,3.95 c-0.38,0.63-1.66,2.84-3.02,5.11l-0.79,1.32c-3.31,5.52-5.66,8.72-9.41,10.03c-3.03,1.08-6.47,0.5-9.66-1.41 c-2.36-1.41-5.62-3.92-5.9-8.42c-0.15-2.94,0.63-5.36,4.82-12.35l0.93-1.55c0.79-1.32,2.25-3.69,2.65-4.35l6.7,4.01 c-0.56,0.68-1.6,2.28-3.17,4.9L180.41,25.88z"></path> <path id="XMLID_9_" class="st6" d="M202.07,48.42c-0.9,0.9-6.81,6.98-7.12,7.38l-5.29-5.27c0.66-0.48,8.11-8.05,8.61-8.55 l1.94-1.95c0.71-0.71,5.8-5.91,6.17-6.44c3.25,3.24,6.51,6.58,8.36,8.99c3.07,3.95,3.59,7.22,1.42,9.41 c-1.94,1.95-4.64,2.24-7.79,1.7c-0.09,1.52-0.13,8.82-0.27,10.19l-7.61-1.05c0.35-1.45,2.39-12.71,2.79-14.39 c1.66,0.42,4.65,0.8,6.23-0.79c1.11-1.12,1.39-2.97-1.15-5.54L202.07,48.42z"></path> <path id="XMLID_6_" class="st6" d="M214.44,81.35c-0.66-1.01-6.99-11.33-7.94-12.79c1.54-0.89,7.55-4.8,8.2-5.22l3.76-2.45 c0.45-0.29,7.18-4.76,7.97-5.32c1.03,1.57,7.6,10.73,8.36,11.72l-4.56,3.13c-0.68-1.04-3.69-5.36-4.02-5.86l-3.71,2.42 c0.37,0.56,2.61,3.7,3.53,4.86l-4.44,3.01c-0.49-0.76-2.82-4.57-3.22-5.18l-3.34,2.18c0.48,0.73,3.18,5.01,4.16,6.25L214.44,81.35 z"></path> <path id="XMLID_4_" class="st6" d="M220.99,82.28c1.18,3.03,3.4,5.95,4.85,5.33c0.62-0.26,0.76-0.94,1.12-4.05 c0.29-2.42,0.87-5.32,3.46-6.42c3.46-1.47,9.17,1.53,13.16,9.05l-4.8,3.02c-1.64-3.86-3.11-5.53-4.37-4.99 c-0.74,0.31-0.78,1.5-0.92,3.92c-0.11,1.98-0.37,5.22-3.15,6.4c-3.39,1.44-9.22-0.27-14.28-9.19L220.99,82.28z"></path> </g> </g> </svg> 